<?xml version="1.0" standalone="no"?>
<!DOCTYPE svg PUBLIC "-//W3C//DTD SVG 20010904//EN"
 "http://www.w3.org/TR/2001/REC-SVG-20010904/DTD/svg10.dtd">
<svg version="1.0" xmlns="http://www.w3.org/2000/svg"
 width="780.000000pt" height="500.000000pt" viewBox="0 0 780.000000 500.000000"
 preserveAspectRatio="xMidYMid meet">
<metadata>
Created by potrace 1.15, written by Peter Selinger 2001-2017
</metadata>
<g transform="translate(0.000000,500.000000) scale(0.100000,-0.100000)"
fill="#000000" stroke="none">
<path d="M1440 3807 c-3 -634 -2 -957 5 -957 9 0 10 1012 2 1695 -1 121 -4
-211 -7 -738z"/>
<path d="M6380 4385 c-409 -69 -663 -253 -765 -553 -100 -293 -56 -628 109
-833 25 -31 79 -82 118 -112 136 -103 268 -159 513 -217 72 -17 202 -49 291
-70 175 -42 271 -75 330 -113 63 -40 112 -96 133 -152 52 -138 30 -274 -57
-361 -92 -92 -226 -134 -432 -134 -152 0 -240 18 -340 67 -123 60 -200 156
-245 303 -9 30 -19 61 -21 69 -5 17 -24 12 -179 -44 -66 -24 -177 -62 -247
-85 -96 -32 -128 -46 -128 -59 0 -37 44 -170 78 -239 95 -189 260 -326 477
-395 184 -58 294 -72 580 -72 272 0 373 12 540 60 338 98 527 277 606 570 32
120 30 343 -4 476 -75 288 -273 476 -621 588 -96 32 -125 39 -381 96 -251 56
-285 65 -361 101 -134 63 -189 160 -182 319 6 140 54 212 183 278 66 33 146
47 265 47 121 0 198 -14 275 -50 111 -52 173 -136 198 -271 9 -45 15 -58 27
-55 8 3 44 7 80 11 36 4 130 15 210 25 80 10 180 22 222 25 90 8 92 12 79 97
-23 139 -81 279 -155 373 -133 169 -354 278 -639 315 -107 14 -465 10 -557 -5z"/>
<path d="M55 4330 c-3 -5 12 -60 34 -122 23 -62 41 -116 41 -121 0 -5 6 -23
14 -40 8 -18 28 -72 44 -122 16 -49 94 -272 172 -495 78 -223 166 -475 195
-560 29 -85 83 -240 120 -345 37 -104 78 -221 90 -260 12 -38 47 -140 78 -225
30 -85 80 -229 112 -320 31 -91 66 -189 77 -218 l20 -52 366 2 366 3 28 75
c33 92 194 550 293 835 40 116 117 334 170 485 53 151 115 327 137 390 74 216
116 335 141 405 14 39 65 183 112 320 48 138 96 272 106 298 33 83 59 77 -315
77 l-335 0 -16 -57 c-9 -32 -26 -92 -39 -133 -14 -41 -41 -129 -61 -195 -20
-66 -43 -138 -50 -160 -8 -22 -26 -80 -41 -130 -14 -49 -48 -160 -74 -245 -27
-85 -71 -229 -99 -320 -27 -91 -66 -217 -86 -280 -75 -238 -174 -661 -200
-852 -7 -50 -32 -73 -39 -35 -3 12 -17 94 -32 182 -33 189 -128 566 -208 825
-32 102 -76 244 -98 315 -22 72 -46 148 -53 170 -8 22 -27 85 -44 140 -17 55
-74 240 -127 410 -53 171 -99 321 -103 335 l-7 25 -342 3 c-221 1 -343 -1
-347 -8z"/>
<path d="M2855 4318 c7 -22 302 -867 427 -1223 33 -93 66 -188 73 -210 8 -22
44 -125 80 -230 77 -218 135 -384 199 -570 25 -71 65 -188 91 -260 47 -132
144 -412 173 -497 15 -44 14 -50 -8 -115 -31 -94 -109 -246 -161 -317 -58 -77
-155 -149 -238 -175 -159 -50 -386 -31 -531 44 -18 9 -33 15 -35 13 -3 -3 -42
-273 -66 -461 -6 -49 -7 -93 -3 -97 5 -5 68 -21 139 -36 115 -24 151 -27 315
-26 148 0 205 5 284 21 119 25 244 75 335 132 68 44 207 171 244 225 119 169
198 311 269 484 35 85 166 452 303 850 25 74 49 142 52 150 15 41 134 382 208
595 45 132 97 281 115 330 17 50 65 187 106 305 125 358 160 458 219 625 31
88 65 185 75 215 10 30 32 94 49 142 17 49 31 92 31 98 0 11 -617 15 -656 4
-24 -6 -9 38 -202 -604 -27 -91 -67 -219 -87 -285 -20 -66 -61 -199 -90 -295
-29 -96 -71 -236 -94 -310 -60 -195 -165 -623 -192 -782 -16 -95 -28 -138 -37
-138 -15 0 -16 4 -32 105 -25 174 -118 544 -222 885 -27 91 -56 185 -63 210
-7 25 -36 122 -64 215 -28 94 -79 260 -112 370 -96 318 -110 366 -135 445 -12
41 -29 97 -36 125 -11 38 -19 51 -38 56 -14 4 -175 7 -358 8 l-333 1 6 -22z"/>
</g>
</svg>
